<?xml version="1.0" standalone="no"?><!DOCTYPE svg PUBLIC "-//W3C//DTD SVG 1.1//EN" "http://www.w3.org/Graphics/SVG/1.1/DTD/svg11.dtd"><svg t="1712044267575" class="icon" viewBox="0 0 1024 1024" version="1.1" xmlns="http://www.w3.org/2000/svg" p-id="2789" xmlns:xlink="http://www.w3.org/1999/xlink">
<path d="M385.130667 352.341333a32 32 0 0 0-22.613334 9.386667 32 32 0 0 0 0 45.226667l255.573334 255.573333a32 32 0 0 0 45.226666 0 32 32 0 0 0 0-45.226667l-255.573333-255.573333a32 32 0 0 0-22.613333-9.386667z m255.829333 0.213334a32 32 0 0 0-22.613333 9.322666l-256 255.146667a32 32 0 0 0-0.106667 45.312 32 32 0 0 0 45.269333 0.042667l256-255.168a32 32 0 0 0 0.064-45.248 32 32 0 0 0-22.613333-9.429334zM516.544 45.312c-19.178667 0-38.357333 7.210667-52.8 21.674667L71.552 459.2c-28.906667 28.906667-28.906667 76.693333 0 105.6l392.192 392.192c28.906667 28.906667 76.693333 28.906667 105.6 0l392.192-392.192c28.906667-28.906667 28.906667-76.693333 0-105.6L569.322667 67.008a74.432 74.432 0 0 0-52.778667-21.674667z m-7.552 66.922667a10.218667 10.218667 0 0 1 15.082667 0l392.213333 392.192c4.437333 4.437333 4.437333 10.666667 0 15.104L524.074667 911.744a10.218667 10.218667 0 0 1-15.082667 0L116.8 519.552a10.218667 10.218667 0 0 1 0-15.104z" p-id="2790" fill="#2c2c2c"></path></svg>