<?xml version="1.0" standalone="no"?><!DOCTYPE svg PUBLIC "-//W3C//DTD SVG 1.1//EN" "http://www.w3.org/Graphics/SVG/1.1/DTD/svg11.dtd"><svg t="1712044299554" class="icon" viewBox="0 0 1024 1024" version="1.1" xmlns="http://www.w3.org/2000/svg" p-id="3043" xmlns:xlink="http://www.w3.org/1999/xlink">
<path d="M332.202667 480.128a32 32 0 0 0-32 32 32 32 0 0 0 32 32h361.472a32 32 0 0 0 32-32 32 32 0 0 0-32-32z m180.714666-180.693333a32 32 0 0 0-32 32v361.450666a32 32 0 0 0 32 32 32 32 0 0 0 32-32V331.413333a32 32 0 0 0-32-32z m3.626667-254.101334c-19.178667 0-38.357333 7.210667-52.8 21.674667L71.552 459.2c-28.906667 28.906667-28.906667 76.693333 0 105.6l392.192 392.192c28.906667 28.906667 76.693333 28.906667 105.6 0l392.192-392.192c28.906667-28.906667 28.906667-76.693333 0-105.6L569.322667 67.008a74.432 74.432 0 0 0-52.778667-21.674667z m-7.552 66.922667a10.218667 10.218667 0 0 1 15.082667 0l392.213333 392.192c4.437333 4.437333 4.437333 10.666667 0 15.104L524.074667 911.744a10.218667 10.218667 0 0 1-15.082667 0L116.8 519.552a10.218667 10.218667 0 0 1 0-15.104z" p-id="3044" fill="#2c2c2c"></path></svg>