<?xml version="1.0" standalone="no"?><!DOCTYPE svg PUBLIC "-//W3C//DTD SVG 1.1//EN" "http://www.w3.org/Graphics/SVG/1.1/DTD/svg11.dtd"><svg t="1712044244533" class="icon" viewBox="0 0 1024 1024" version="1.1" xmlns="http://www.w3.org/2000/svg" p-id="2738" xmlns:xlink="http://www.w3.org/1999/xlink">
<path d="M569.344 66.986667l392.192 392.234666a74.666667 74.666667 0 0 1 0 105.557334l-392.192 392.234666a74.666667 74.666667 0 0 1-105.6 0l-392.192-392.192a74.666667 74.666667 0 0 1 0-105.6l392.192-392.234666a74.666667 74.666667 0 0 1 105.6 0z m-45.226667 45.226666a10.666667 10.666667 0 0 0-15.104 0l-392.234666 392.234667a10.666667 10.666667 0 0 0 0 15.104l392.234666 392.192a10.666667 10.666667 0 0 0 15.061334 0l392.234666-392.192a10.666667 10.666667 0 0 0 0-15.104l-392.234666-392.192z" fill="#1C1B1F" p-id="2739"></path>
<path d="M309.333333 512a202.666667 202.666667 0 1 1 405.333334 0 202.666667 202.666667 0 0 1-405.333334 0zM512 373.333333a138.666667 138.666667 0 1 0 0 277.333334 138.666667 138.666667 0 0 0 0-277.333334z" fill="#1C1B1F" p-id="2740"></path></svg>