<?xml version="1.0" standalone="no"?><!DOCTYPE svg PUBLIC "-//W3C//DTD SVG 1.1//EN" "http://www.w3.org/Graphics/SVG/1.1/DTD/svg11.dtd"><svg t="1710818322188" class="icon" viewBox="0 0 1024 1024" version="1.1" xmlns="http://www.w3.org/2000/svg" p-id="23395" xmlns:xlink="http://www.w3.org/1999/xlink">
<path d="M832 192a96 96 0 0 1 96 96v448A96 96 0 0 1 832 832H192a96 96 0 0 1-96-96v-448A96 96 0 0 1 192 192z m0 64H192a32 32 0 0 0-32 32v448a32 32 0 0 0 32 32h640a32 32 0 0 0 32-32v-448A32 32 0 0 0 832 256z m-85.568 123.712a32 32 0 1 1-35.712 53.12c-22.784-15.296-45.568-21.888-69.312-20.352-23.424 1.536-39.36 33.408-24.96 52.48 5.12 6.848 14.592 11.392 38.4 17.92l9.728 2.56c54.784 14.08 77.888 25.472 93.312 60.8 30.208 69.248-22.976 132.48-95.36 139.008-40.576 3.712-80.192-11.136-117.888-42.624a32 32 0 0 1 41.088-49.088c25.408 21.312 48.768 30.08 71.04 27.968 33.408-3.008 52.8-26.048 42.432-49.664-3.84-9.024-12.992-14.208-40.448-21.76l-9.856-2.56c-46.016-11.84-65.536-20.16-83.584-44.032-45.824-60.672-1.088-150.208 72-154.88 38.272-2.432 74.88 8.128 109.12 31.104z m-272.256-23.168a32 32 0 0 1 18.752 41.216l-96 256a32 32 0 0 1-59.904 0l-96-256a32 32 0 0 1 59.904-22.528l65.984 176.128 66.112-176.128a32 32 0 0 1 41.152-18.688z" fill="#000000" p-id="23396"></path></svg>