<?xml version="1.0" standalone="no"?><!DOCTYPE svg PUBLIC "-//W3C//DTD SVG 1.1//EN" "http://www.w3.org/Graphics/SVG/1.1/DTD/svg11.dtd"><svg t="1710818764530" class="icon" viewBox="0 0 1024 1024" version="1.1" xmlns="http://www.w3.org/2000/svg" p-id="35510" xmlns:xlink="http://www.w3.org/1999/xlink">
<path d="M431.616 11.776l352.768 179.2v109.056h-78.336V231.936L509.952 132.608v760.832l195.584-99.328v-68.096h78.336V834.56l-352.768 179.2V11.776z m-294.4 901.12c-11.776 0-23.552-3.072-33.792-9.216-20.48-12.288-33.792-34.304-33.792-58.368s12.8-46.592 33.792-58.368c10.24-6.144 22.016-9.216 33.792-9.216s23.552 3.072 33.792 9.216c20.48 12.288 33.792 34.304 33.792 58.368s-12.8 46.592-33.792 58.368c-10.24 6.144-22.016 9.216-33.792 9.216z m68.096-197.632c-14.848 0-29.184-4.096-41.984-11.264-26.112-14.848-42.496-42.496-42.496-72.192 0-29.696 16.384-57.344 42.496-72.192 13.312-7.168 27.648-11.264 41.984-11.264 14.336 0 29.184 3.584 41.984 11.264 26.112 14.848 42.496 42.496 42.496 72.192 0 29.696-16.384 57.344-42.496 72.192-12.8 7.168-27.136 11.264-41.984 11.264z m731.136-46.592c-11.776 0-24.064-3.072-34.304-9.216-20.992-12.288-34.304-34.816-34.304-58.88s13.312-46.592 34.304-58.88c10.24-6.144 22.016-9.216 34.304-9.216 11.776 0 24.064 3.072 34.304 9.216 20.992 12.288 34.304 34.816 34.304 58.88s-13.312 46.592-34.304 58.88c-10.24 6.144-22.016 9.216-34.304 9.216z m-193.024 0c-35.84 0-65.536-27.648-68.096-62.976v-5.12c0-37.376 30.72-68.096 68.608-68.096s68.096 30.72 68.096 68.096c-0.512 37.888-31.232 68.096-68.608 68.096zM314.88 496.128c-11.776 0-23.552-3.072-33.792-9.216-20.48-11.776-33.792-34.304-33.792-58.368s12.8-46.592 33.792-58.368c10.24-6.144 22.016-9.216 33.792-9.216s23.552 3.072 33.792 9.216c20.992 12.288 33.792 34.304 33.792 58.368s-12.8 46.592-33.792 58.368c-10.24 5.632-22.016 9.216-33.792 9.216z m428.544-5.12c-35.84 0-65.536-27.648-68.096-62.976v-5.12c0-37.376 30.72-68.096 68.608-68.096s68.096 30.72 68.096 68.096c-0.512 37.888-31.232 68.096-68.608 68.096z m193.024 0c-11.776 0-24.064-3.072-34.304-9.216-20.992-12.288-34.304-34.816-34.304-58.88s13.312-46.592 34.304-58.88c10.24-6.144 22.016-9.216 34.304-9.216 11.776 0 24.064 3.072 34.304 9.216 20.992 12.288 34.304 34.816 34.304 58.88s-13.312 46.592-34.304 58.88c-10.24 6.144-22.016 9.216-34.304 9.216zM79.872 370.688c-11.776 0-23.552-3.072-33.792-9.216-20.48-11.776-33.792-34.304-33.792-58.368S25.088 256.512 46.08 244.736c10.24-6.144 22.016-9.216 33.792-9.216s23.552 3.072 33.792 9.216c20.992 12.288 33.792 34.304 33.792 58.368s-12.8 46.592-33.792 58.368c-10.752 6.144-22.016 9.216-33.792 9.216z m159.232-156.672c-11.776 0-23.552-3.072-33.792-9.216-20.48-12.288-33.792-34.304-33.792-58.368s12.8-46.592 33.792-58.368c10.24-6.144 22.016-9.216 33.792-9.216s23.552 3.072 33.792 9.216c20.48 12.288 33.792 34.304 33.792 58.368s-12.8 46.592-33.792 58.368c-10.24 6.144-22.016 9.216-33.792 9.216z" fill="#2c2c2c" p-id="35511"></path></svg>